Coordinates
version=1
nRows=16
nColumns=32
inDegrees=yes

Units are S.I. units (second, meters, Newtons, ...)
If the header above contains a line with 'inDegrees', this indicates whether rotational values are in degrees (yes) or radians (no).

endheader
time	pelvis_tilt	pelvis_list	pelvis_rotation	pelvis_tx	pelvis_ty	pelvis_tz	hip_flexion_r	hip_adduction_r	hip_rotation_r	knee_angle_r	knee_adduction_r	med_cond_adduction_r	lat_cond_adduction_r	patella_r_constrained_knee_angle	ankle_angle_r	subtalar_angle_r	mtp_angle_r	hip_flexion_l	hip_adduction_l	hip_rotation_l	knee_angle_l	knee_adduction_l	med_cond_adduction_l	lat_cond_adduction_l	patella_l_constrained_knee_angle	ankle_angle_l	subtalar_angle_l	mtp_angle_l	lumbar_extension	lumbar_bending	lumbar_rotation
      0.00500000	      2.95745496	      3.84808698	     -0.36402045	      0.26876922	      0.91883805	     -1.21469518	     -4.39430597	    -24.26004328	    -35.63998548	     -6.91930758	      3.13773473	     -0.00000000	      0.00000000	     -0.12076470	     -6.92783386	      7.67163462	      0.00000000	     -2.84578504	    -13.05718430	    -38.58227726	     -4.28392875	     -1.34828109	      0.00000000	      0.00000000	     -0.07476866	     -8.37663988	     17.12205903	     -0.00000000	     -5.12152736	     -1.92450290	     -0.71314256
      0.01000000	      2.96952513	      3.62882351	     -0.33781458	      0.26867903	      0.91890220	     -1.21464728	     -4.42728213	    -23.91510308	    -35.59604321	     -6.76461866	      3.03741214	      0.00000000	      0.00000000	     -0.11806487	     -7.06128193	      7.55564406	     -0.00000000	     -2.82186331	    -13.39235852	    -38.57455675	     -4.44790934	     -1.25976902	      0.00000000	      0.00000000	     -0.07763066	     -8.26683713	     17.14514277	     -0.00000000	     -5.16820557	     -1.58946667	     -0.61762789
      0.01500000	      2.96755975	      3.47173854	     -0.30786484	      0.26861120	      0.91893315	     -1.21462064	     -4.39944221	    -23.69577184	    -35.63481754	     -6.75373463	      2.94766698	      0.00000000	      0.00000000	     -0.11787491	     -7.06722455	      7.60682829	      0.00000000	     -2.79196536	    -13.62751043	    -38.55992085	     -4.54648645	     -1.19895014	     -0.00000000	     -0.00000000	     -0.07935116	     -8.20835270	     17.14394372	      0.00000000	     -5.19675734	     -1.45943150	     -0.74504477
      0.02000000	      2.91762196	      3.71877607	     -0.33333725	      0.26853154	      0.91880538	     -1.21472373	     -4.28500820	    -24.09548058	    -35.58140316	     -6.96244430	      3.08079864	     -0.00000000	     -0.00000000	     -0.12151758	     -6.96643634	      7.56919582	      0.00000000	     -2.73178689	    -13.27037988	    -38.57750818	     -4.44746188	     -1.30852537	      0.00000000	      0.00000000	     -0.07762285	     -8.30104110	     17.15097102	      0.00000000	     -5.15481962	     -1.70843182	     -0.65944242
      0.02500000	      2.90477652	      3.64094179	     -0.33474588	      0.26845024	      0.91880564	     -1.21468989	     -4.22436116	    -23.99948292	    -35.57616920	     -7.00024204	      3.03969699	     -0.00000000	      0.00000000	     -0.12217727	     -6.97987559	      7.56257302	     -0.00000000	     -2.71371964	    -13.38216995	    -38.56861269	     -4.48402474	     -1.28047189	      0.00000000	      0.00000000	     -0.07826100	     -8.26862922	     17.14904288	     -0.00000000	     -5.17585335	     -1.51947065	     -0.50050770
      0.03000000	      2.89124787	      3.58181934	     -0.34472330	      0.26831425	      0.91879954	     -1.21463743	     -4.14238806	    -23.92614196	    -35.53017404	     -7.05336957	      2.98768476	      0.00000000	      0.00000000	     -0.12310452	     -7.00054386	      7.55727474	     -0.00000000	     -2.67001859	    -13.48387686	    -38.58834876	     -4.56384605	     -1.25639808	     -0.00000000	     -0.00000000	     -0.07965414	     -8.22806052	     17.15442078	      0.00000000	     -5.18765987	     -1.54907584	     -0.65935039
      0.03500000	      2.86993851	      3.53338417	     -0.36416757	      0.26817883	      0.91878274	     -1.21459217	     -4.05595723	    -23.87494760	    -35.45725610	     -7.10385108	      2.96645596	      0.00000000	      0.00000000	     -0.12398559	     -7.01090523	      7.50853470	     -0.00000000	     -2.63907438	    -13.56380921	    -38.60558219	     -4.60888422	     -1.22732244	     -0.00000000	     -0.00000000	     -0.08044020	     -8.20638760	     17.15403883	      0.00000000	     -5.21086784	     -1.50031267	     -0.65453560
      0.04000000	      2.82453726	      3.57668131	     -0.35593872	      0.26804995	      0.91870181	     -1.21463223	     -3.93525299	    -23.97713123	    -35.45666116	     -7.25639951	      2.98551759	      0.00000000	      0.00000000	     -0.12664806	     -6.95885975	      7.51271937	     -0.00000000	     -2.55051853	    -13.50963630	    -38.59493723	     -4.64233829	     -1.26866870	     -0.00000000	     -0.00000000	     -0.08102409	     -8.18859415	     17.17352124	      0.00000000	     -5.19254913	     -1.54211637	     -0.64985558
      0.04500000	      2.79033176	      3.53080850	     -0.32276576	      0.26788557	      0.91866538	     -1.21469549	     -3.85253479	    -23.93800388	    -35.45180432	     -7.33077170	      2.97156681	      0.00000000	      0.00000000	     -0.12794610	     -6.93882894	      7.47209113	     -0.00000000	     -2.45346726	    -13.58888250	    -38.58628975	     -4.73352910	     -1.27467092	      0.00000000	      0.00000000	     -0.08261567	     -8.15670530	     17.20586389	      0.00000000	     -5.18612463	     -1.48999141	     -0.71004244
      0.05000000	      2.70746679	      3.74179784	     -0.28158520	      0.26775555	      0.91849833	     -1.21490099	     -3.67502556	    -24.32971766	    -35.53776453	     -7.65856149	      3.08751443	     -0.00000000	     -0.00000000	     -0.13366711	     -6.80142067	      7.58760060	     -0.00000000	     -2.31465932	    -13.28416138	    -38.53450307	     -4.68449768	     -1.40082803	      0.00000000	      0.00000000	     -0.08175991	     -8.19347529	     17.22045896	     -0.00000000	     -5.14191547	     -1.68300085	     -0.65894109
      0.05500000	      2.67817250	      3.52958283	     -0.25820840	      0.26754055	      0.91851723	     -1.21488221	     -3.61407197	    -24.00015071	    -35.43338994	     -7.54747565	      2.96822535	      0.00000000	      0.00000000	     -0.13172830	     -6.95074008	      7.41235909	     -0.00000000	     -2.20421340	    -13.60649387	    -38.54450314	     -4.89284529	     -1.35744464	      0.00000000	      0.00000000	     -0.08539626	     -8.05491078	     17.28442953	      0.00000000	     -5.16683710	     -1.54649833	     -0.88370611
      0.06000000	      2.61282207	      3.59641470	     -0.34504567	      0.26739669	      0.91837646	     -1.21474249	     -3.38455872	    -24.14979638	    -35.31040594	     -7.77623816	      2.97207355	      0.00000000	      0.00000000	     -0.13572096	     -6.82572247	      7.45391318	     -0.00000000	     -2.16085370	    -13.52055602	    -38.61031025	     -4.85350416	     -1.35877500	     -0.00000000	     -0.00000000	     -0.08470963	     -8.06553258	     17.22173033	      0.00000000	     -5.13451992	     -1.57144879	     -0.68904033
      0.06500000	      2.62913420	      3.21404864	     -0.38099052	      0.26711901	      0.91851691	     -1.21445653	     -3.33302048	    -23.54129076	    -35.08555531	     -7.59603717	      2.75639586	     -0.00000000	     -0.00000000	     -0.13257586	     -7.02596892	      7.10340622	      0.00000000	     -2.12244390	    -14.11022243	    -38.65892077	     -5.14740803	     -1.20406427	     -0.00000000	     -0.00000000	     -0.08983922	     -7.91201562	     17.30407028	     -0.00000000	     -5.24121250	     -0.97853031	     -0.41295455
      0.07000000	      2.46290194	      3.81162451	     -0.29460585	      0.26697393	      0.91811929	     -1.21497367	     -3.03586224	    -24.57142012	    -35.29270264	     -8.23067005	      3.08207142	      0.00000000	      0.00000000	     -0.14365229	     -6.70376320	      7.40193332	      0.00000000	     -1.86527170	    -13.23288764	    -38.55686044	     -4.92292309	     -1.52646495	     -0.00000000	     -0.00000000	     -0.08592122	     -8.07745420	     17.29665386	      0.00000000	     -5.07609448	     -1.79022622	     -0.69749414
      0.07500000	      2.43216900	      3.62497676	     -0.42929794	      0.26679198	      0.91809469	     -1.21457524	     -2.85896996	    -24.29796645	    -35.02286634	     -8.21615807	      2.99015645	      0.00000000	      0.00000000	     -0.14339901	     -6.78492975	      7.17663483	      0.00000000	     -1.88479235	    -13.53799718	    -38.65924162	     -5.01873707	     -1.36616760	     -0.00000000	     -0.00000000	     -0.08759349	     -8.01787084	     17.23174875	     -0.00000000	     -5.11039534	     -1.37231521	     -0.18495560
      0.08000000	      2.32920454	      3.75442987	     -0.31381467	      0.26649100	      0.91793090	     -1.21491486	     -2.67868871	    -24.54457802	    -35.11639556	     -8.47490871	      3.01613729	     -0.00000000	     -0.00000000	     -0.14791506	     -6.68663965	      7.28065170	      0.00000000	     -1.60729593	    -13.35204751	    -38.57633169	     -5.12281674	     -1.55818614	     -0.00000000	     -0.00000000	     -0.08941002	     -7.97264596	     17.34414576	     -0.00000000	     -5.05097892	     -1.66017499	     -0.57220044
